<?xml version="1.0" encoding="UTF-8"?>
<svg id="_레이어_1" data-name="레이어 1" xmlns="http://www.w3.org/2000/svg" viewBox="0 0 10.66 10.14">
  <defs>
    <style>
      .cls-1 {
        fill: #e60012;
        stroke-width: 0px;
      }
    </style>
  </defs>
  <path class="cls-1" d="m5.33,1.36l1.11,2.25.14.28.31.05,2.48.36-1.8,1.75-.23.22.05.31.42,2.47-2.22-1.17-.28-.15-.28.15-2.22,1.17.42-2.47.05-.31-.23-.22-1.8-1.75,2.48-.36.31-.05.14-.28,1.11-2.25M5.33,0l-1.65,3.34L0,3.87l2.67,2.6-.63,3.67,3.3-1.73,3.3,1.73-.63-3.67,2.67-2.6-3.68-.54L5.33,0h0Z"/>
</svg>